<svg width="40" height="40" viewBox="0 0 40 40" fill="none" xmlns="http://www.w3.org/2000/svg">
<rect width="40" height="40" rx="8" fill="#FF6B00"/>
<path d="M24.0603 14.6806L21.9553 14.3528L20.9973 12.3235C20.9118 12.1713 20.7874 12.0447 20.6367 11.9565C20.4861 11.8684 20.3147 11.8219 20.1402 11.8219C19.9657 11.8219 19.7943 11.8684 19.6436 11.9565C19.493 12.0447 19.3686 12.1713 19.2831 12.3235L18.3251 14.3528L16.2201 14.6806C16.0483 14.706 15.8868 14.7783 15.7534 14.8895C15.62 15.0006 15.5198 15.1464 15.4638 15.3108C15.4101 15.477 15.4016 15.6546 15.4393 15.8251C15.4769 15.9957 15.5594 16.1532 15.6781 16.2814L17.2411 17.8696L16.8755 20.1384C16.8453 20.3119 16.8648 20.4903 16.9317 20.6531C16.9986 20.816 17.1102 20.9565 17.2537 21.0586C17.3986 21.1634 17.5703 21.2249 17.7488 21.2361C17.9272 21.2473 18.1052 21.2076 18.2621 21.1216L20.1402 20.0754L22.0183 21.1216C22.1756 21.2061 22.3533 21.245 22.5315 21.2338C22.7096 21.2227 22.8812 21.162 23.0267 21.0586C23.1701 20.9565 23.2817 20.816 23.3487 20.6531C23.4156 20.4903 23.435 20.3119 23.4048 20.1384L23.0393 17.8696L24.6023 16.2814C24.721 16.1532 24.8034 15.9957 24.8411 15.8251C24.8788 15.6546 24.8703 15.477 24.8166 15.3108C24.7605 15.1464 24.6603 15.0006 24.5269 14.8895C24.3935 14.7783 24.2321 14.706 24.0603 14.6806ZM21.4007 16.899C21.2989 17.0047 21.2232 17.1326 21.1794 17.2726C21.1357 17.4126 21.1251 17.5609 21.1486 17.7057L21.2872 18.525L20.6444 18.1721C20.5052 18.0963 20.349 18.0573 20.1906 18.0586C20.0324 18.0589 19.8766 18.0978 19.7368 18.1721L19.094 18.525L19.2326 17.7057C19.2561 17.5609 19.2455 17.4126 19.2018 17.2726C19.158 17.1326 19.0823 17.0047 18.9805 16.899L18.3755 16.2688L19.1696 16.1553C19.3227 16.1299 19.4672 16.0671 19.5903 15.9726C19.7134 15.878 19.8114 15.7547 19.8755 15.6133L20.1402 14.9453L20.4553 15.6133C20.5194 15.7547 20.6174 15.878 20.7405 15.9726C20.8636 16.0671 21.0081 16.1299 21.1612 16.1553L21.9553 16.2688L21.4007 16.899ZM20.1402 8.00001C18.1449 7.99688 16.2036 8.64776 14.6134 9.853C13.0233 11.0582 11.872 12.7514 11.3357 14.6733C10.7995 16.5951 10.9079 18.6398 11.6444 20.4942C12.3808 22.3486 13.7047 23.9105 15.4134 24.9409V31.634C15.413 31.7916 15.452 31.9468 15.5268 32.0855C15.6017 32.2242 15.71 32.342 15.8419 32.4281C15.9753 32.5152 16.1287 32.5667 16.2875 32.5778C16.4464 32.5888 16.6054 32.559 16.7495 32.4911L20.1402 30.9407L23.5309 32.4911C23.6522 32.5515 23.7862 32.5817 23.9216 32.5794C24.1046 32.578 24.2836 32.5256 24.4384 32.4281C24.5704 32.342 24.6787 32.2242 24.7536 32.0855C24.8284 31.9468 24.8674 31.7916 24.867 31.634V24.9409C26.5756 23.9105 27.8995 22.3486 28.636 20.4942C29.3724 18.6398 29.4809 16.5951 28.9446 14.6733C28.4084 12.7514 27.2571 11.0582 25.6669 9.853C24.0768 8.64776 22.1355 7.99688 20.1402 8.00001ZM22.9763 30.1592L20.5309 29.0374C20.4082 28.9817 20.275 28.9529 20.1402 28.9529C20.0054 28.9529 19.8722 28.9817 19.7494 29.0374L17.3041 30.1592V25.8232C19.1464 26.4283 21.134 26.4283 22.9763 25.8232V30.1592ZM20.1402 24.3862C18.7067 24.3862 17.3054 23.9612 16.1135 23.1648C14.9217 22.3684 13.9927 21.2364 13.4441 19.9121C12.8956 18.5877 12.752 17.1304 13.0317 15.7245C13.3113 14.3186 14.0016 13.0272 15.0152 12.0135C16.0289 10.9999 17.3203 10.3097 18.7262 10.03C20.1321 9.75034 21.5894 9.89387 22.9138 10.4424C24.2381 10.991 25.3701 11.92 26.1665 13.1118C26.9629 14.3037 27.3879 15.705 27.3879 17.1385C27.3846 19.0597 26.6199 20.9012 25.2614 22.2597C23.9029 23.6182 22.0614 24.3829 20.1402 24.3862Z" fill="white"/>
</svg>
