<svg width="40" height="40" viewBox="0 0 40 40" fill="none" xmlns="http://www.w3.org/2000/svg">
<rect width="40" height="40" rx="8" fill="#FF6B00"/>
<path d="M9.15558 18.113C9.05262 18.7166 9.00058 19.3278 9 19.9402H11.2632C11.2643 19.3878 11.3183 18.8368 11.4245 18.2948C10.6655 18.2514 9.90971 18.1945 9.15558 18.113ZM10.8178 13.9243C10.3046 14.6959 9.89182 15.5298 9.58955 16.4058C10.3715 16.4876 11.1568 16.5372 11.9432 16.5753C12.1751 16.0297 12.4622 15.5094 12.8001 15.0224C12.1325 14.6684 11.4717 14.3024 10.8178 13.9243ZM28.4993 13.1317C27.5189 11.8956 26.2821 10.8868 24.8743 10.1748C23.4664 9.46273 21.9209 9.06438 20.3443 9.00718C18.7676 8.94997 17.1973 9.23528 15.7415 9.84342C14.2858 10.4516 12.9791 11.3681 11.9117 12.5299C12.5911 12.9169 13.2764 13.2927 13.9678 13.6574C14.8534 12.8119 15.9083 12.1639 17.0628 11.7562C18.2174 11.3485 19.4452 11.1904 20.6654 11.2922C21.8856 11.3941 23.0702 11.7537 24.1412 12.3472C25.2121 12.9407 26.1449 13.7547 26.8781 14.7354L24.4175 17.1668H31V10.6605L28.4993 13.1317ZM30.8444 22.0282C30.9474 21.4245 30.9994 20.8133 31 20.201H28.7368C28.7357 20.7535 28.6817 21.3046 28.5755 21.8468C29.3345 21.8906 30.0903 21.9463 30.8444 22.0282ZM29.1822 26.2177C29.6955 25.4461 30.1083 24.6123 30.4105 23.7362C29.6285 23.6543 28.8432 23.6052 28.0568 23.5667C27.825 24.1123 27.5379 24.6327 27.1999 25.1196C27.8675 25.4742 28.5283 25.8402 29.1822 26.2177ZM11.5007 27.0103C12.4811 28.2464 13.7179 29.2552 15.1257 29.9673C16.5336 30.6793 18.0792 31.0777 19.6558 31.1348C21.2325 31.192 22.8028 30.9066 24.2586 30.2984C25.7143 29.6902 27.0209 28.7735 28.0883 27.6117C27.4089 27.2247 26.7236 26.8487 26.0322 26.4838C25.1467 27.329 24.092 27.9768 22.9376 28.3844C21.7833 28.792 20.5557 28.9501 19.3358 28.8484C18.1158 28.7466 16.9313 28.3873 15.8605 27.7941C14.7897 27.2009 13.8568 26.3873 13.1236 25.407L15.5841 22.9751H9V29.4815L11.5007 27.0103Z" fill="white"/>
</svg>
