<svg width="40" height="40" viewBox="0 0 40 40" fill="none" xmlns="http://www.w3.org/2000/svg">
<rect width="40" height="40" rx="8" fill="#FF6B00"/>
<path d="M30.7945 20.7005L29.0331 16.8254C28.8871 16.5052 28.6521 16.2337 28.3563 16.0432C28.0604 15.8526 27.716 15.751 27.3641 15.7505H24.1236V14.3753C24.1232 14.0107 23.9782 13.6611 23.7204 13.4032C23.4625 13.1454 23.113 13.0004 22.7483 13H11.2877C10.9231 13.0004 10.5735 13.1454 10.3157 13.4032C10.0579 13.6611 9.91284 14.0107 9.91244 14.3753V19.8764C9.91185 19.9369 9.92328 19.997 9.94605 20.0532C9.96883 20.1093 10.0025 20.1604 10.0451 20.2034C10.0878 20.2464 10.1385 20.2806 10.1944 20.3039C10.2503 20.3272 10.3103 20.3393 10.3709 20.3393C10.4314 20.3393 10.4914 20.3272 10.5473 20.3039C10.6032 20.2806 10.654 20.2464 10.6966 20.2034C10.7392 20.1604 10.7729 20.1093 10.7957 20.0532C10.8184 19.997 10.8299 19.9369 10.8293 19.8764V14.3753C10.8294 14.2537 10.8778 14.1372 10.9637 14.0513C11.0496 13.9653 11.1662 13.917 11.2877 13.9168H22.7483C22.8699 13.917 22.9864 13.9653 23.0724 14.0513C23.1583 14.1372 23.2067 14.2537 23.2068 14.3753V21.7101C23.2066 21.8316 23.1583 21.9481 23.0723 22.034C22.9864 22.12 22.8699 22.1683 22.7483 22.1685H17.2473C17.1264 22.1697 17.011 22.2185 16.926 22.3043C16.8409 22.3902 16.7933 22.5061 16.7933 22.6269C16.7933 22.7477 16.8409 22.8637 16.926 22.9495C17.011 23.0353 17.1264 23.0841 17.2473 23.0853H22.7483C23.113 23.0849 23.4625 22.9399 23.7204 22.6821C23.9782 22.4242 24.1232 22.0747 24.1236 21.71V16.6674H27.3641C27.5401 16.6676 27.7123 16.7184 27.8603 16.8137C28.0083 16.9089 28.1258 17.0447 28.1988 17.2048L28.3713 17.5842H26.4158C26.1727 17.5845 25.9396 17.6811 25.7677 17.853C25.5958 18.0249 25.4991 18.258 25.4989 18.5011V20.3348C25.4991 20.5779 25.5958 20.811 25.7677 20.9828C25.9396 21.1547 26.1726 21.2514 26.4157 21.2516H30.0172C30.0588 21.38 30.0811 21.5138 30.0833 21.6488V23.5438C30.0832 23.6654 30.0348 23.7819 29.9488 23.8678C29.8628 23.9538 29.7463 24.0021 29.6247 24.0022H28.2031C28.0974 23.4846 27.8162 23.0193 27.407 22.6852C26.9977 22.3511 26.4856 22.1686 25.9573 22.1686C25.429 22.1686 24.9169 22.3511 24.5077 22.6852C24.0985 23.0193 23.8172 23.4846 23.7116 24.0022H16.2841C16.1784 23.4846 15.8972 23.0193 15.4879 22.6852C15.0787 22.3511 14.5666 22.1686 14.0383 22.1686C13.51 22.1686 12.9979 22.3511 12.5887 22.6852C12.1795 23.0193 11.8982 23.4846 11.7925 24.0022H11.2877C11.1662 24.002 11.0497 23.9537 10.9637 23.8677C10.8778 23.7818 10.8294 23.6653 10.8293 23.5438V23.0854C10.9501 23.0842 11.0656 23.0354 11.1506 22.9495C11.2356 22.8637 11.2833 22.7478 11.2833 22.6269C11.2833 22.5061 11.2356 22.3902 11.1506 22.3044C11.0656 22.2185 10.9501 22.1697 10.8293 22.1685H9.454C9.33319 22.1697 9.21772 22.2185 9.13271 22.3044C9.04769 22.3902 9 22.5061 9 22.6269C9 22.7478 9.04769 22.8637 9.13271 22.9495C9.21772 23.0354 9.33319 23.0842 9.454 23.0854H9.91244V23.5438C9.91284 23.9084 10.0579 24.258 10.3157 24.5158C10.5735 24.7737 10.9231 24.9187 11.2877 24.9191H11.7925C11.8982 25.4367 12.1794 25.9019 12.5886 26.236C12.9979 26.5702 13.51 26.7527 14.0383 26.7527C14.5666 26.7527 15.0787 26.5702 15.4879 26.236C15.8971 25.9019 16.1784 25.4367 16.284 24.9191H23.7115C23.8172 25.4367 24.0984 25.9019 24.5077 26.236C24.9169 26.5702 25.429 26.7527 25.9573 26.7527C26.4856 26.7527 26.9977 26.5702 27.4069 26.236C27.8161 25.9019 28.0974 25.4367 28.2031 24.9191H29.6247C29.9893 24.9187 30.3389 24.7737 30.5967 24.5158C30.8546 24.258 30.9996 23.9084 31 23.5438V21.6488C31.0005 21.3216 30.9304 20.9982 30.7945 20.7005ZM14.0383 25.8359C13.7663 25.8359 13.5004 25.7553 13.2742 25.6041C13.048 25.453 12.8718 25.2382 12.7677 24.9869C12.6636 24.7356 12.6363 24.4591 12.6894 24.1923C12.7425 23.9256 12.8735 23.6805 13.0658 23.4882C13.2581 23.2958 13.5032 23.1649 13.77 23.1118C14.0367 23.0587 14.3133 23.086 14.5646 23.19C14.8159 23.2941 15.0306 23.4704 15.1818 23.6966C15.3329 23.9227 15.4135 24.1886 15.4135 24.4606C15.4131 24.8253 15.2681 25.1748 15.0103 25.4327C14.7525 25.6905 14.4029 25.8355 14.0383 25.8359ZM25.9573 25.8359C25.6853 25.8359 25.4194 25.7553 25.1932 25.6041C24.9671 25.453 24.7908 25.2382 24.6867 24.9869C24.5826 24.7356 24.5554 24.4591 24.6084 24.1923C24.6615 23.9256 24.7925 23.6805 24.9848 23.4882C25.1772 23.2958 25.4222 23.1649 25.689 23.1118C25.9558 23.0587 26.2323 23.086 26.4836 23.19C26.7349 23.2941 26.9497 23.4704 27.1008 23.6966C27.2519 23.9227 27.3326 24.1886 27.3326 24.4606C27.3322 24.8253 27.1872 25.1748 26.9293 25.4326C26.6715 25.6905 26.322 25.8355 25.9573 25.8359H25.9573ZM26.4157 18.5011H28.7878L29.6213 20.3348H26.4157V18.5011Z" fill="white"/>
<path d="M16.913 17.355C16.9126 17.0512 16.7918 16.7599 16.5769 16.545C16.3621 16.3302 16.0708 16.2093 15.7669 16.209H14.8501C14.7285 16.209 14.6119 16.2573 14.5259 16.3432C14.44 16.4292 14.3917 16.5458 14.3917 16.6674V19.4179C14.3911 19.4785 14.4025 19.5386 14.4253 19.5947C14.4481 19.6509 14.4817 19.7019 14.5244 19.745C14.567 19.788 14.6177 19.8222 14.6736 19.8455C14.7295 19.8688 14.7895 19.8808 14.8501 19.8808C14.9107 19.8808 14.9706 19.8688 15.0265 19.8455C15.0825 19.8222 15.1332 19.788 15.1758 19.745C15.2184 19.7019 15.2521 19.6509 15.2749 19.5947C15.2977 19.5386 15.3091 19.4785 15.3085 19.4179V18.8698L16.0524 19.7198C16.0919 19.7658 16.14 19.8035 16.1941 19.8308C16.2482 19.8581 16.3072 19.8744 16.3676 19.8787C16.4281 19.883 16.4888 19.8753 16.5462 19.8561C16.6037 19.8368 16.6567 19.8063 16.7023 19.7664C16.7479 19.7265 16.7851 19.678 16.8118 19.6236C16.8386 19.5692 16.8542 19.5101 16.8579 19.4496C16.8616 19.3891 16.8533 19.3285 16.8335 19.2713C16.8136 19.214 16.7826 19.1613 16.7422 19.1161L16.1475 18.4362C16.3711 18.3572 16.5648 18.2108 16.7019 18.0172C16.839 17.8236 16.9127 17.5923 16.913 17.355ZM15.7669 17.5842H15.3085V17.1258H15.767C15.8278 17.1258 15.8861 17.15 15.9291 17.193C15.9721 17.236 15.9962 17.2943 15.9962 17.3551C15.9962 17.4158 15.9721 17.4741 15.9291 17.5171C15.8861 17.5601 15.8278 17.5843 15.767 17.5843L15.7669 17.5842ZM13.5798 17.1258C13.7006 17.1247 13.8161 17.0758 13.9011 16.99C13.9861 16.9042 14.0338 16.7882 14.0338 16.6674C14.0338 16.5466 13.9861 16.4307 13.9011 16.3448C13.8161 16.259 13.7006 16.2102 13.5798 16.209H12.2045C12.083 16.209 11.9664 16.2573 11.8804 16.3433C11.7944 16.4292 11.7461 16.5458 11.7461 16.6674V19.4179C11.7455 19.4785 11.7569 19.5386 11.7797 19.5947C11.8025 19.6509 11.8362 19.7019 11.8788 19.745C11.9214 19.788 11.9722 19.8222 12.0281 19.8455C12.084 19.8688 12.144 19.8808 12.2045 19.8808C12.2651 19.8808 12.3251 19.8688 12.381 19.8455C12.4369 19.8222 12.4876 19.788 12.5303 19.745C12.5729 19.7019 12.6066 19.6509 12.6293 19.5947C12.6521 19.5386 12.6635 19.4785 12.6629 19.4179V18.5011H13.3506C13.4112 18.5017 13.4712 18.4903 13.5274 18.4675C13.5835 18.4447 13.6346 18.411 13.6776 18.3684C13.7207 18.3258 13.7548 18.2751 13.7781 18.2192C13.8015 18.1632 13.8135 18.1033 13.8135 18.0427C13.8135 17.9821 13.8015 17.9221 13.7781 17.8662C13.7548 17.8103 13.7207 17.7596 13.6776 17.717C13.6346 17.6743 13.5835 17.6407 13.5274 17.6179C13.4712 17.5951 13.4112 17.5837 13.3506 17.5843H12.6629V17.1258H13.5798ZM21.8315 17.1258C21.9523 17.1247 22.0677 17.0758 22.1528 16.99C22.2378 16.9042 22.2855 16.7882 22.2855 16.6674C22.2855 16.5466 22.2378 16.4307 22.1528 16.3448C22.0677 16.259 21.9523 16.2102 21.8315 16.209H20.4562C20.3346 16.209 20.218 16.2573 20.132 16.3433C20.0461 16.4292 19.9978 16.5458 19.9978 16.6674V19.4179C19.9978 19.5395 20.0461 19.6561 20.132 19.7421C20.218 19.8281 20.3346 19.8764 20.4562 19.8764H21.8315C21.9523 19.8752 22.0677 19.8264 22.1528 19.7406C22.2378 19.6547 22.2855 19.5388 22.2855 19.418C22.2855 19.2971 22.2378 19.1812 22.1528 19.0954C22.0677 19.0095 21.9523 18.9607 21.8315 18.9595H20.9146V18.5011H21.5919C21.6525 18.5017 21.7126 18.4903 21.7687 18.4675C21.8248 18.4447 21.8759 18.411 21.9189 18.3684C21.962 18.3258 21.9962 18.2751 22.0195 18.2192C22.0428 18.1632 22.0548 18.1033 22.0548 18.0427C22.0548 17.9821 22.0428 17.9221 22.0195 17.8662C21.9962 17.8103 21.962 17.7596 21.9189 17.717C21.8759 17.6743 21.8248 17.6407 21.7687 17.6179C21.7126 17.5951 21.6525 17.5837 21.5919 17.5843H20.9146V17.1258H21.8315ZM19.1955 17.1258C19.2561 17.1264 19.3162 17.115 19.3723 17.0922C19.4284 17.0694 19.4795 17.0358 19.5225 16.9931C19.5656 16.9505 19.5997 16.8998 19.6231 16.8439C19.6464 16.788 19.6584 16.728 19.6584 16.6674C19.6584 16.6068 19.6464 16.5469 19.6231 16.491C19.5997 16.435 19.5656 16.3843 19.5225 16.3417C19.4795 16.2991 19.4284 16.2654 19.3723 16.2426C19.3162 16.2198 19.2561 16.2084 19.1955 16.209H17.8202C17.6986 16.209 17.582 16.2573 17.4961 16.3433C17.4101 16.4292 17.3618 16.5459 17.3618 16.6674V19.418C17.3618 19.5396 17.4101 19.6562 17.4961 19.7421C17.582 19.8281 17.6986 19.8764 17.8202 19.8764H19.1955C19.2561 19.877 19.3162 19.8655 19.3723 19.8428C19.4284 19.82 19.4795 19.7863 19.5225 19.7437C19.5656 19.7011 19.5997 19.6503 19.6231 19.5944C19.6464 19.5385 19.6584 19.4785 19.6584 19.418C19.6584 19.3574 19.6464 19.2974 19.6231 19.2415C19.5997 19.1856 19.5656 19.1349 19.5225 19.0922C19.4795 19.0496 19.4284 19.0159 19.3723 18.9932C19.3162 18.9704 19.2561 18.959 19.1955 18.9595H18.2787V18.5011H18.9562C19.0168 18.5017 19.0769 18.4903 19.133 18.4675C19.1892 18.4447 19.2402 18.411 19.2833 18.3684C19.3263 18.3258 19.3605 18.2751 19.3838 18.2192C19.4071 18.1632 19.4191 18.1033 19.4191 18.0427C19.4191 17.9821 19.4071 17.9221 19.3838 17.8662C19.3605 17.8103 19.3263 17.7596 19.2833 17.717C19.2402 17.6743 19.1892 17.6407 19.133 17.6179C19.0769 17.5951 19.0168 17.5837 18.9562 17.5843H18.2787V17.1258H19.1955ZM9.454 21.7101H11.7461C11.8669 21.7089 11.9824 21.6601 12.0674 21.5743C12.1524 21.4884 12.2001 21.3725 12.2001 21.2517C12.2001 21.1309 12.1524 21.0149 12.0674 20.9291C11.9824 20.8432 11.8669 20.7944 11.7461 20.7933H9.454C9.33319 20.7944 9.21772 20.8432 9.13271 20.9291C9.04769 21.0149 9 21.1309 9 21.2517C9 21.3725 9.04769 21.4884 9.13271 21.5743C9.21772 21.6601 9.33319 21.7089 9.454 21.7101Z" fill="white"/>
</svg>
