<svg width="16" height="16" viewBox="0 0 16 16" fill="none" xmlns="http://www.w3.org/2000/svg">
<path d="M9.22676 7.80565C9.22215 8.04705 9.14598 8.28165 9.0079 8.47971C8.86981 8.67778 8.67603 8.83038 8.45112 8.91819C8.2262 9.006 7.98028 9.02505 7.74453 8.97293C7.50877 8.92081 7.2938 8.79987 7.12686 8.62544C6.95992 8.451 6.84852 8.23093 6.8068 7.99312C6.76507 7.75531 6.79489 7.51046 6.89248 7.28961C6.99006 7.06876 7.15102 6.88186 7.35495 6.7526C7.55888 6.62334 7.7966 6.55753 8.03797 6.56352C8.35872 6.5754 8.66222 6.71174 8.88415 6.94361C9.10607 7.1755 9.22896 7.48469 9.22676 7.80565Z" fill="#B6BBC6"/>
<path d="M10.1054 3.98782H5.97135C5.56229 3.98782 5.16998 4.15032 4.88073 4.43957C4.59148 4.72882 4.42898 5.12113 4.42898 5.53019V9.75722C4.42898 9.95977 4.46888 10.1603 4.54639 10.3475C4.6239 10.5346 4.73751 10.7046 4.88073 10.8478C5.02395 10.9911 5.19398 11.1047 5.38111 11.1822C5.56824 11.2597 5.76881 11.2996 5.97135 11.2996H10.1054C10.308 11.2996 10.5085 11.2597 10.6957 11.1822C10.8828 11.1047 11.0528 10.9911 11.196 10.8478C11.3393 10.7046 11.4529 10.5346 11.5304 10.3475C11.6079 10.1603 11.6478 9.95977 11.6478 9.75722V5.53781C11.6486 5.33468 11.6093 5.13339 11.5322 4.94547C11.455 4.75755 11.3416 4.5867 11.1983 4.44271C11.055 4.29872 10.8847 4.18442 10.6972 4.10636C10.5096 4.0283 10.3085 3.98802 10.1054 3.98782ZM8.038 9.87305C7.62876 9.88229 7.22605 9.76938 6.88126 9.54874C6.53647 9.32809 6.26524 9.00972 6.10218 8.63425C5.93913 8.25878 5.89165 7.84324 5.9658 7.44067C6.03995 7.03809 6.23237 6.66674 6.5185 6.37401C6.80463 6.08127 7.17149 5.88043 7.57227 5.79711C7.97304 5.71379 8.38956 5.75178 8.76865 5.90622C9.14774 6.06066 9.47223 6.32455 9.70068 6.66422C9.92914 7.00388 10.0512 7.40391 10.0513 7.81326C10.0544 8.08072 10.0048 8.34618 9.90532 8.59446C9.80582 8.84275 9.65837 9.06899 9.47141 9.26027C9.28444 9.45156 9.06162 9.60413 8.81567 9.70927C8.56972 9.81441 8.30547 9.87007 8.038 9.87305ZM10.2753 5.75423C10.2251 5.75424 10.1753 5.74422 10.1289 5.72475C10.0826 5.70528 10.0406 5.67675 10.0054 5.64084C9.97015 5.60494 9.94247 5.56236 9.92393 5.51562C9.90539 5.46888 9.89636 5.41891 9.89738 5.36864C9.89738 5.26637 9.938 5.1683 10.0103 5.09598C10.0826 5.02367 10.1807 4.98305 10.283 4.98305C10.3852 4.98305 10.4833 5.02367 10.5556 5.09598C10.6279 5.1683 10.6686 5.26637 10.6686 5.36864C10.6701 5.42308 10.6598 5.4772 10.6385 5.5273C10.6171 5.5774 10.5852 5.62229 10.5449 5.65891C10.5046 5.69553 10.4568 5.72301 10.4049 5.73946C10.353 5.75591 10.2981 5.76095 10.2441 5.75423H10.2753Z" fill="#B6BBC6"/>
<path d="M8.03798 9.53874e-05C6.01693 -0.0100099 4.07464 0.783159 2.63839 2.20511C1.20215 3.62707 0.389595 5.56133 0.37949 7.58239C0.369385 9.60344 1.16255 11.5457 2.58451 12.982C4.00646 14.4182 5.94073 15.2308 7.96178 15.2409C8.9625 15.2459 9.95442 15.0537 10.8809 14.6754C11.8073 14.2971 12.6502 13.7399 13.3614 13.0359C14.0725 12.3318 14.638 11.4945 15.0256 10.5719C15.4132 9.64925 15.6153 8.65931 15.6203 7.65859C15.6253 6.65787 15.4331 5.66596 15.0548 4.73949C14.6765 3.81303 14.1193 2.97016 13.4153 2.259C12.7112 1.54784 11.8739 0.982328 10.9513 0.594744C10.0286 0.207161 9.03871 0.00509901 8.03798 9.53874e-05ZM12.6658 9.67952C12.668 10.0214 12.6022 10.3603 12.4724 10.6766C12.3426 10.9928 12.1512 11.2802 11.9095 11.522C11.6678 11.7638 11.3805 11.9552 11.0643 12.0851C10.748 12.215 10.4092 12.2809 10.0673 12.2788H6.0102C5.66838 12.2808 5.32957 12.2149 5.01339 12.085C4.69721 11.9551 4.40994 11.7637 4.1682 11.5221C3.92645 11.2804 3.73505 10.9932 3.60505 10.677C3.47506 10.3609 3.40906 10.0221 3.41088 9.68028V5.62242C3.40876 5.28055 3.47452 4.94165 3.60434 4.62537C3.73417 4.3091 3.92549 4.02175 4.1672 3.77996C4.40891 3.53818 4.69621 3.34678 5.01245 3.21686C5.32868 3.08694 5.66756 3.02108 6.00944 3.02311H10.0673C10.4091 3.02108 10.7479 3.08692 11.0641 3.21679C11.3803 3.34666 11.6676 3.53799 11.9093 3.7797C12.151 4.0214 12.3423 4.30866 12.4722 4.62485C12.602 4.94103 12.6679 5.27985 12.6658 5.62166V9.67952Z" fill="#B6BBC6"/>
</svg>
