<svg width="26" height="25" viewBox="0 0 26 25" fill="none" xmlns="http://www.w3.org/2000/svg">
<path d="M14.8794 12.54C14.872 12.9279 14.7496 13.3048 14.5278 13.623C14.3059 13.9412 13.9946 14.1863 13.6333 14.3274C13.2719 14.4684 12.8769 14.4991 12.4981 14.4153C12.1194 14.3316 11.774 14.1373 11.5058 13.8571C11.2376 13.5768 11.0587 13.2233 10.9916 12.8412C10.9246 12.4592 10.9725 12.0658 11.1293 11.711C11.286 11.3562 11.5446 11.056 11.8723 10.8483C12.1999 10.6406 12.5818 10.5349 12.9695 10.5445C13.4848 10.5636 13.9724 10.7826 14.329 11.1552C14.6855 11.5277 14.8829 12.0244 14.8794 12.54Z" fill="white"/>
<path d="M16.291 6.40658H9.64945C8.99228 6.40658 8.36202 6.66764 7.89733 7.13233C7.43264 7.59702 7.17158 8.22727 7.17158 8.88444V15.6753C7.17158 16.0007 7.23567 16.3229 7.3602 16.6236C7.48472 16.9242 7.66724 17.1973 7.89733 17.4274C8.12742 17.6575 8.40058 17.84 8.70121 17.9646C9.00184 18.0891 9.32405 18.1532 9.64945 18.1532H16.291C16.6164 18.1532 16.9386 18.0891 17.2392 17.9646C17.5398 17.84 17.813 17.6575 18.0431 17.4274C18.2732 17.1973 18.4557 16.9242 18.5802 16.6236C18.7047 16.3229 18.7688 16.0007 18.7688 15.6753V8.89669C18.7701 8.57035 18.707 8.24697 18.5831 7.94507C18.4592 7.64317 18.2769 7.3687 18.0467 7.13737C17.8165 6.90605 17.5429 6.72242 17.2417 6.59702C16.9404 6.47161 16.6173 6.4069 16.291 6.40658ZM12.9696 15.8614C12.3121 15.8762 11.6652 15.6949 11.1112 15.3404C10.5573 14.9859 10.1216 14.4744 9.85963 13.8712C9.59768 13.268 9.5214 12.6004 9.64053 11.9537C9.75965 11.3069 10.0688 10.7104 10.5285 10.2401C10.9881 9.76978 11.5775 9.44711 12.2214 9.31326C12.8652 9.17941 13.5344 9.24043 14.1434 9.48855C14.7524 9.73666 15.2737 10.1606 15.6407 10.7063C16.0078 11.252 16.2039 11.8946 16.204 12.5523C16.2091 12.982 16.1294 13.4084 15.9695 13.8073C15.8097 14.2062 15.5728 14.5697 15.2724 14.877C14.972 15.1843 14.6141 15.4294 14.2189 15.5983C13.8238 15.7672 13.3993 15.8566 12.9696 15.8614ZM16.564 9.24437C16.4832 9.24439 16.4032 9.22829 16.3287 9.19701C16.2543 9.16573 16.1868 9.1199 16.1302 9.06221C16.0737 9.00453 16.0292 8.93613 15.9994 8.86104C15.9696 8.78595 15.9551 8.70567 15.9567 8.62491C15.9567 8.46061 16.022 8.30305 16.1382 8.18688C16.2544 8.0707 16.4119 8.00544 16.5762 8.00544C16.7405 8.00544 16.8981 8.0707 17.0142 8.18688C17.1304 8.30305 17.1957 8.46061 17.1957 8.62491C17.1981 8.71236 17.1816 8.79931 17.1473 8.8798C17.113 8.96029 17.0618 9.03241 16.997 9.09124C16.9322 9.15007 16.8555 9.19421 16.7721 9.22064C16.6887 9.24707 16.6006 9.25517 16.5138 9.24437H16.564Z" fill="white"/>
<path d="M12.9696 0.000153243C9.72267 -0.0160812 6.60231 1.25817 4.29493 3.54259C1.98755 5.82701 0.682159 8.93447 0.665925 12.1814C0.64969 15.4283 1.92394 18.5486 4.20837 20.856C6.49279 23.1634 9.60025 24.4688 12.8471 24.485C14.4548 24.493 16.0484 24.1843 17.5368 23.5765C19.0252 22.9687 20.3793 22.0737 21.5218 20.9426C22.6643 19.8114 23.5728 18.4664 24.1955 16.9841C24.8181 15.5019 25.1427 13.9115 25.1508 12.3038C25.1588 10.6961 24.8501 9.10256 24.2423 7.61416C23.6345 6.12576 22.7395 4.77166 21.6083 3.62916C20.4772 2.48666 19.1321 1.57814 17.6499 0.955477C16.1676 0.332811 14.5773 0.00819174 12.9696 0.000153243ZM20.4044 15.5505C20.4078 16.0997 20.3022 16.6442 20.0936 17.1523C19.885 17.6604 19.5777 18.122 19.1893 18.5105C18.801 18.8989 18.3395 19.2064 17.8314 19.4151C17.3234 19.6238 16.779 19.7296 16.2297 19.7264H9.71185C9.16271 19.7295 8.61841 19.6236 8.11045 19.4149C7.6025 19.2062 7.14098 18.8988 6.75261 18.5106C6.36425 18.1223 6.05674 17.6609 5.8479 17.153C5.63907 16.6451 5.53304 16.1009 5.53596 15.5517V9.03262C5.53255 8.48338 5.63819 7.93893 5.84677 7.43083C6.05534 6.92272 6.36269 6.46108 6.75101 6.07264C7.13933 5.68421 7.60089 5.37672 8.10893 5.168C8.61697 4.95928 9.16139 4.85347 9.71063 4.85672H16.2297C16.7789 4.85348 17.3232 4.95924 17.8311 5.16788C18.3391 5.37653 18.8006 5.68391 19.1889 6.07221C19.5772 6.46052 19.8846 6.92202 20.0932 7.42998C20.3019 7.93794 20.4076 8.48226 20.4044 9.03139V15.5505Z" fill="white"/>
</svg>
