<svg width="13" height="20" viewBox="0 0 13 20" fill="none" xmlns="http://www.w3.org/2000/svg">
<path d="M6.5 0.772461C2.90643 0.772461 0 3.74596 0 7.42246C0 9.07546 0.464286 10.624 1.30929 12.0205C2.19143 13.4835 3.35214 14.7375 4.24357 16.2005C4.68 16.913 4.99571 17.578 5.33 18.3475C5.57143 18.87 5.76643 19.7725 6.5 19.7725C7.23357 19.7725 7.42857 18.87 7.66071 18.3475C8.00429 17.578 8.31071 16.913 8.74714 16.2005C9.63857 14.747 10.7993 13.493 11.6814 12.0205C12.5357 10.624 13 9.07546 13 7.42246C13 3.74596 10.0936 0.772461 6.5 0.772461ZM6.5 10.035C5.21857 10.035 4.17857 8.97096 4.17857 7.65996C4.17857 6.34896 5.21857 5.28496 6.5 5.28496C7.78143 5.28496 8.82143 6.34896 8.82143 7.65996C8.82143 8.97096 7.78143 10.035 6.5 10.035Z" fill="white"/>
</svg>
