<svg width="40" height="40" viewBox="0 0 40 40" fill="none" xmlns="http://www.w3.org/2000/svg">
<rect width="40" height="40" rx="8" fill="#FF6B00"/>
<path d="M29.0588 12H14.8235C13.7559 12 12.8824 12.8735 12.8824 13.9412V15.8824H10.9412C9.87353 15.8824 9 16.7559 9 17.8235V26.8824C9 27.95 9.87353 28.8235 10.9412 28.8235H25.1765C26.2441 28.8235 27.1176 27.95 27.1176 26.8824V24.9412H29.0588C30.1265 24.9412 31 24.0676 31 23V13.9412C31 12.8735 30.1265 12 29.0588 12ZM10.9412 17.1765H25.1765C25.5324 17.1765 25.8235 17.4676 25.8235 17.8235V19.1176H10.2941V17.8235C10.2941 17.4676 10.5853 17.1765 10.9412 17.1765ZM25.8235 26.8824C25.8235 27.2382 25.5324 27.5294 25.1765 27.5294H10.9412C10.5853 27.5294 10.2941 27.2382 10.2941 26.8824V20.4118H25.8235V26.8824ZM29.7059 23C29.7059 23.3559 29.4147 23.6471 29.0588 23.6471H27.1176V17.8235C27.1176 16.7559 26.2441 15.8824 25.1765 15.8824H14.1765V13.9412C14.1765 13.5853 14.4676 13.2941 14.8235 13.2941H29.0588C29.4147 13.2941 29.7059 13.5853 29.7059 13.9412V23ZM25.1765 26.2353C25.1765 26.5912 24.8853 26.8824 24.5294 26.8824H21.2941C20.9382 26.8824 20.6471 26.5912 20.6471 26.2353C20.6471 25.8794 20.9382 25.5882 21.2941 25.5882H24.5294C24.8853 25.5882 25.1765 25.8794 25.1765 26.2353Z" fill="white"/>
</svg>
