<svg width="40" height="40" viewBox="0 0 40 40" fill="none" xmlns="http://www.w3.org/2000/svg">
<rect width="40" height="40" rx="8" fill="#FF6B00"/>
<path d="M28.4769 11H11.5231C10.8575 11 10.2188 11.2617 9.74626 11.7282C9.27367 12.1947 9.00544 12.8281 9 13.4905V23.9793C9.00091 24.6447 9.26714 25.2825 9.74022 25.7527C10.2133 26.2228 10.8545 26.4869 11.5231 26.4869H15.7994C15.982 26.7758 16.1939 27.0451 16.4319 27.2909C16.4652 27.3433 16.5098 27.3877 16.5625 27.4209C17.0925 27.9323 17.7308 28.3192 18.4306 28.5532C19.1304 28.7872 19.874 28.8623 20.6067 28.7731C21.3395 28.6839 22.0429 28.4325 22.6654 28.0375C23.2879 27.6425 23.8136 27.1139 24.2041 26.4903H28.4769C29.146 26.4903 29.7878 26.2258 30.261 25.7549C30.7342 25.284 31 24.6453 31 23.9793V13.4905C30.9946 12.8281 30.7263 12.1947 30.2537 11.7282C29.7812 11.2617 29.1425 11 28.4769 11ZM16.4112 23.8664C16.4132 23.2196 16.5918 22.5855 16.928 22.0319C17.2641 21.4783 17.7451 21.0261 18.3196 20.7235C18.894 20.421 19.5403 20.2795 20.1893 20.3143C20.8383 20.3491 21.4656 20.5588 22.0041 20.9209L17.0231 25.8609C16.624 25.2716 16.4109 24.5771 16.4112 23.8664ZM20 27.438C19.2859 27.4383 18.588 27.2263 17.9959 26.829L22.9769 21.872C23.3404 22.4093 23.5502 23.035 23.5838 23.6819C23.6174 24.3288 23.4736 24.9727 23.1678 25.5445C22.8619 26.1164 22.4056 26.5946 21.8476 26.9282C21.2896 27.2617 20.6509 27.4379 20 27.438ZM29.625 23.9793C29.6241 24.2818 29.5027 24.5715 29.2875 24.7851C29.0723 24.9986 28.7808 25.1185 28.4769 25.1185H24.8125C25.0316 24.2986 25.032 23.436 24.8138 22.6159C24.5956 21.7958 24.1662 21.0465 23.5681 20.442C23.5329 20.3932 23.4899 20.3505 23.4409 20.3154C22.6663 19.5582 21.6629 19.0754 20.5854 18.9416C19.5079 18.8077 18.4161 19.0302 17.4781 19.5747C16.5402 20.1192 15.8082 20.9556 15.3949 21.9549C14.9816 22.9542 14.9099 24.061 15.1909 25.1048H11.5231C11.2216 25.1049 10.9321 24.9868 10.7173 24.7762C10.5025 24.5656 10.3795 24.2794 10.375 23.9793V18.2799H29.625V23.9793ZM29.625 13.7163H10.375V13.4871C10.3813 13.1882 10.505 12.9037 10.7197 12.6946C10.9343 12.4854 11.2227 12.3683 11.5231 12.3684H28.4769C28.7778 12.3684 29.0668 12.4859 29.2815 12.6958C29.4962 12.9056 29.6196 13.191 29.625 13.4905V13.7163Z" fill="white"/>
</svg>
