<svg width="19" height="17" viewBox="0 0 19 17" fill="none" xmlns="http://www.w3.org/2000/svg">
<path d="M17.7091 8.78263C17.7091 3.78682 13.7589 0.392578 9.36362 0.392578C5.01471 0.392578 1.01816 3.71402 1.01816 8.83722C0.461791 9.14662 0.0908813 9.72901 0.0908813 10.4024V12.2224C0.0908813 13.2233 0.925428 14.0423 1.94543 14.0423H2.8727V8.49143C2.8727 4.9698 5.77507 2.12155 9.36362 2.12155C12.9522 2.12155 15.8545 4.9698 15.8545 8.49143V14.9523H8.43635V16.7723H15.8545C16.8745 16.7723 17.7091 15.9533 17.7091 14.9523V13.8421C18.2562 13.56 18.6364 13.0049 18.6364 12.3498V10.2568C18.6364 9.61981 18.2562 9.06472 17.7091 8.78263Z" fill="white"/>
<path d="M6.5818 10.4022C7.09392 10.4022 7.50907 9.99483 7.50907 9.49226C7.50907 8.98969 7.09392 8.58228 6.5818 8.58228C6.06968 8.58228 5.65453 8.98969 5.65453 9.49226C5.65453 9.99483 6.06968 10.4022 6.5818 10.4022Z" fill="white"/>
<path d="M12.1454 10.4022C12.6576 10.4022 13.0727 9.99483 13.0727 9.49226C13.0727 8.98969 12.6576 8.58228 12.1454 8.58228C11.6333 8.58228 11.2182 8.98969 11.2182 9.49226C11.2182 9.99483 11.6333 10.4022 12.1454 10.4022Z" fill="white"/>
<path d="M14.9273 7.69953C14.4822 5.10608 12.1825 3.12231 9.40998 3.12231C6.60034 3.12231 3.57743 5.40637 3.81852 8.99171C6.10889 8.07263 7.83362 6.07066 8.32507 3.63191C9.5398 6.02516 12.0342 7.67223 14.9273 7.69953Z" fill="white"/>
</svg>
