<svg width="40" height="40" viewBox="0 0 40 40" fill="none" xmlns="http://www.w3.org/2000/svg">
<rect width="40" height="40" rx="8" fill="#FF6B00"/>
<path d="M26.1342 16.8788L25.8073 13.1216H13.3807L12 28.9999H27.188" stroke="white" stroke-width="1.5" stroke-miterlimit="10" stroke-linecap="round" stroke-linejoin="round"/>
<path d="M16.8325 15.1926V11.0497C16.8325 9.52509 18.0686 8.28897 19.5933 8.28897H19.594C21.119 8.28897 22.3554 9.52539 22.3554 11.0504V15.1926" stroke="white" stroke-width="1.5" stroke-miterlimit="10" stroke-linecap="round" stroke-linejoin="round"/>
<path d="M32.0206 17.9541L27.2084 16.5733L22.3555 17.9541V22.2409C22.3555 25.0849 24.0503 27.6551 26.6644 28.7756L27.188 28.9999L27.7117 28.7756C30.3257 27.6551 32.0206 25.0849 32.0206 22.2409V17.9541Z" stroke="white" stroke-width="1.5" stroke-miterlimit="10" stroke-linecap="round" stroke-linejoin="round"/>
<path d="M25.8074 22.7866L27.1881 24.1674L29.2592 20.7155" stroke="white" stroke-width="1.5" stroke-miterlimit="10" stroke-linecap="round" stroke-linejoin="round"/>
</svg>
