<svg width="16" height="16" viewBox="0 0 16 16" fill="none" xmlns="http://www.w3.org/2000/svg">
<path d="M10.1172 10.6597H9.3614L4.42864 4.53925H5.24016L10.1172 10.6597Z" fill="#B6BBC6"/>
<path d="M13.0928 2.3744C11.7084 0.925865 9.81488 0.0742543 7.80996 0.00262348C6.2983 -0.0371714 4.81848 0.376695 3.53755 1.18055C2.26458 1.99237 1.26212 3.16234 0.649504 4.53924C0.0368874 5.91614 -0.146102 7.45222 0.116448 8.93259C0.378998 10.4209 1.07117 11.7978 2.11342 12.8882C3.15566 13.9786 4.50024 14.7347 5.97211 15.061C7.45193 15.3873 8.98745 15.2679 10.3877 14.7188C11.7959 14.1696 13.0053 13.2145 13.8725 11.9809C14.7317 10.7393 15.2091 9.27483 15.2409 7.76262C15.2489 5.75696 14.4851 3.82293 13.0928 2.3744ZM8.9795 11.4317L6.83136 8.76546L4.37294 11.4317H3.01245L6.19488 7.97752L2.83742 3.80701H5.64591L7.58719 6.24246L9.83875 3.80701H11.1992L8.22367 7.03836L11.7243 11.4317H8.9795Z" fill="#B6BBC6"/>
</svg>
