<svg width="26" height="25" viewBox="0 0 26 25" fill="none" xmlns="http://www.w3.org/2000/svg">
<path d="M17.0704 17.1252H15.8562L7.93154 7.29246H9.23527L17.0704 17.1252Z" fill="white"/>
<path d="M21.8508 3.81455C19.6268 1.48743 16.5847 0.119292 13.3637 0.00421471C10.9352 -0.0597172 8.55783 0.605174 6.49998 1.8966C4.45491 3.20081 2.84441 5.0804 1.86022 7.29245C0.876033 9.50449 0.582055 11.9723 1.00385 14.3505C1.42565 16.7416 2.53765 18.9536 4.21205 20.7054C5.88645 22.4571 8.04656 23.6718 10.4112 24.196C12.7886 24.7203 15.2554 24.5285 17.505 23.6462C19.7674 22.764 21.7102 21.2296 23.1034 19.2477C24.4838 17.253 25.2507 14.9003 25.3018 12.4709C25.3146 9.24876 24.0876 6.14167 21.8508 3.81455ZM15.2426 18.3654L11.7916 14.082L7.84205 18.3654H5.65638L10.7691 12.8162L5.37519 6.1161H9.88712L13.0059 10.0287L16.6231 6.1161H18.8087L14.0284 11.3074L19.6523 18.3654H15.2426Z" fill="white"/>
</svg>
