<svg width="10" height="10" viewBox="0 0 10 10" fill="none" xmlns="http://www.w3.org/2000/svg">
<path d="M7.72722 0H2.27271C1.67017 0.000721749 1.09252 0.240399 0.666459 0.666459C0.240399 1.09252 0.000721749 1.67017 0 2.27271V5.90905C0.000661143 6.43278 0.181858 6.94026 0.51305 7.34597C0.844243 7.75168 1.30518 8.03081 1.81817 8.13631V9.54539C1.81816 9.62768 1.84049 9.70843 1.88277 9.77903C1.92506 9.84962 1.98572 9.90742 2.05827 9.94624C2.13083 9.98506 2.21257 10.0035 2.29476 9.99946C2.37696 9.99547 2.45653 9.96924 2.52498 9.92357L5.13633 8.18176H7.72722C8.32976 8.18104 8.90741 7.94136 9.33347 7.5153C9.75953 7.08924 9.99921 6.51159 9.99993 5.90905V2.27271C9.99921 1.67017 9.75953 1.09252 9.33347 0.666459C8.90741 0.240399 8.32976 0.000721749 7.72722 0ZM4.99997 6.81814C4.91007 6.81814 4.82218 6.79148 4.74744 6.74153C4.67269 6.69159 4.61443 6.6206 4.58002 6.53754C4.54562 6.45448 4.53662 6.36309 4.55416 6.27492C4.5717 6.18674 4.61499 6.10575 4.67856 6.04218C4.74213 5.97861 4.82312 5.93532 4.91129 5.91778C4.99946 5.90025 5.09086 5.90925 5.17391 5.94365C5.25697 5.97805 5.32796 6.03631 5.3779 6.11106C5.42785 6.18581 5.45451 6.27369 5.45451 6.36359C5.45451 6.48414 5.40662 6.59976 5.32138 6.685C5.23613 6.77025 5.12052 6.81814 4.99997 6.81814ZM5.80587 3.82725C5.70502 3.89308 5.6208 3.9814 5.55984 4.08527C5.49887 4.18914 5.46282 4.30573 5.45451 4.42588V4.99997C5.45451 5.12052 5.40662 5.23613 5.32138 5.32138C5.23613 5.40662 5.12052 5.45451 4.99997 5.45451C4.87941 5.45451 4.7638 5.40662 4.67856 5.32138C4.59331 5.23613 4.54542 5.12052 4.54542 4.99997V4.42588C4.55189 4.16254 4.62083 3.90451 4.74656 3.67304C4.87229 3.44158 5.05122 3.24329 5.2686 3.09452C5.33125 3.04862 5.3811 2.98743 5.41338 2.91679C5.44567 2.84614 5.45931 2.76841 5.45301 2.69099C5.44671 2.61358 5.42068 2.53907 5.3774 2.47458C5.33412 2.41008 5.27504 2.35775 5.20579 2.32258C5.13654 2.28742 5.05943 2.27058 4.98182 2.27368C4.90421 2.27678 4.82869 2.29971 4.76247 2.3403C4.69624 2.38088 4.64152 2.43775 4.60353 2.5055C4.56553 2.57324 4.54553 2.64958 4.54542 2.72725C4.54542 2.84781 4.49753 2.96342 4.41229 3.04866C4.32705 3.13391 4.21143 3.1818 4.09088 3.1818C3.97033 3.1818 3.85471 3.13391 3.76947 3.04866C3.68423 2.96342 3.63634 2.84781 3.63634 2.72725C3.63634 2.49417 3.69608 2.26497 3.80987 2.06155C3.92366 1.85812 4.0877 1.68726 4.28631 1.56528C4.48493 1.44329 4.7115 1.37425 4.94439 1.36475C5.17729 1.35525 5.40873 1.40561 5.61662 1.51102C5.82451 1.61642 6.00191 1.77336 6.13189 1.96684C6.26187 2.16032 6.34008 2.38389 6.35906 2.6162C6.37805 2.84851 6.33716 3.08181 6.24032 3.29383C6.14347 3.50584 5.99389 3.68949 5.80587 3.82725Z" fill="#CCCCCC"/>
</svg>
