<svg width="10" height="10" viewBox="0 0 10 10" fill="none" xmlns="http://www.w3.org/2000/svg">
<path d="M9.07407 0H0.925926C0.680355 0 0.444842 0.0975526 0.271197 0.271197C0.0975526 0.444842 0 0.680355 0 0.925926V2.22222H5.55556L6.81481 0.962963C7.00009 0.779371 7.24405 0.66681 7.50396 0.644994C7.76388 0.623178 8.02319 0.693497 8.23647 0.843637C8.44976 0.993776 8.60343 1.21416 8.67057 1.46621C8.73771 1.71825 8.71404 1.98588 8.6037 2.22222H10V0.925926C10 0.680355 9.90245 0.444842 9.7288 0.271197C9.55516 0.0975526 9.31964 0 9.07407 0ZM2.03704 1.48148C1.96378 1.48148 1.89218 1.45976 1.83127 1.41906C1.77036 1.37837 1.72289 1.32052 1.69486 1.25285C1.66683 1.18517 1.65949 1.1107 1.67378 1.03886C1.68807 0.967011 1.72335 0.901017 1.77515 0.84922C1.82694 0.797423 1.89294 0.762148 1.96478 0.747857C2.03663 0.733566 2.1111 0.740901 2.17877 0.768933C2.24645 0.796966 2.30429 0.844437 2.34499 0.905344C2.38569 0.966251 2.40741 1.03786 2.40741 1.11111C2.40741 1.20934 2.36839 1.30354 2.29893 1.373C2.22947 1.44246 2.13527 1.48148 2.03704 1.48148ZM3.51852 1.48148C3.44527 1.48148 3.37366 1.45976 3.31275 1.41906C3.25184 1.37837 3.20437 1.32052 3.17634 1.25285C3.14831 1.18517 3.14097 1.1107 3.15526 1.03886C3.16956 0.967011 3.20483 0.901017 3.25663 0.84922C3.30842 0.797423 3.37442 0.762148 3.44626 0.747857C3.51811 0.733566 3.59258 0.740901 3.66025 0.768933C3.72793 0.796966 3.78577 0.844437 3.82647 0.905344C3.86717 0.966251 3.88889 1.03786 3.88889 1.11111C3.88889 1.20934 3.84987 1.30354 3.78041 1.373C3.71095 1.44246 3.61675 1.48148 3.51852 1.48148ZM8.33333 2.59259L6.07407 4.83704C5.96999 4.94125 5.82877 4.99987 5.68148 5H4.8963C4.74895 5 4.60765 4.94147 4.50346 4.83728C4.39927 4.73309 4.34074 4.59179 4.34074 4.44444V3.65926C4.34087 3.51197 4.39949 3.37075 4.5037 3.26667L5.17778 2.59259H0V8.33333C0 8.5789 0.0975526 8.81442 0.271197 8.98806C0.444842 9.16171 0.680355 9.25926 0.925926 9.25926H9.07407C9.31964 9.25926 9.55516 9.16171 9.7288 8.98806C9.90245 8.81442 10 8.5789 10 8.33333V2.59259H8.33333ZM1.66667 4.44444H3.14815C3.19726 4.44444 3.24436 4.46395 3.27909 4.49868C3.31382 4.53341 3.33333 4.58052 3.33333 4.62963C3.33333 4.67874 3.31382 4.72585 3.27909 4.76058C3.24436 4.7953 3.19726 4.81481 3.14815 4.81481H1.66667C1.61755 4.81481 1.57045 4.7953 1.53572 4.76058C1.50099 4.72585 1.48148 4.67874 1.48148 4.62963C1.48148 4.58052 1.50099 4.53341 1.53572 4.49868C1.57045 4.46395 1.61755 4.44444 1.66667 4.44444ZM1.66667 5.92593H6.85185C6.90097 5.92593 6.94807 5.94544 6.9828 5.98017C7.01753 6.01489 7.03704 6.062 7.03704 6.11111C7.03704 6.16022 7.01753 6.20733 6.9828 6.24206C6.94807 6.27679 6.90097 6.2963 6.85185 6.2963H1.66667C1.61755 6.2963 1.57045 6.27679 1.53572 6.24206C1.50099 6.20733 1.48148 6.16022 1.48148 6.11111C1.48148 6.062 1.50099 6.01489 1.53572 5.98017C1.57045 5.94544 1.61755 5.92593 1.66667 5.92593ZM8.33333 7.77778H1.66667C1.61755 7.77778 1.57045 7.75827 1.53572 7.72354C1.50099 7.68881 1.48148 7.64171 1.48148 7.59259C1.48148 7.54348 1.50099 7.49638 1.53572 7.46165C1.57045 7.42692 1.61755 7.40741 1.66667 7.40741H8.33333C8.38245 7.40741 8.42955 7.42692 8.46428 7.46165C8.49901 7.49638 8.51852 7.54348 8.51852 7.59259C8.51852 7.64171 8.49901 7.68881 8.46428 7.72354C8.42955 7.75827 8.38245 7.77778 8.33333 7.77778ZM8.11481 1.22593C8.18369 1.29472 8.23832 1.37642 8.2756 1.46634C8.31288 1.55626 8.33206 1.65266 8.33206 1.75C8.33206 1.84734 8.31288 1.94374 8.2756 2.03366C8.23832 2.12358 8.18369 2.20528 8.11481 2.27407L5.81482 4.57407C5.79758 4.59197 5.77685 4.60613 5.75391 4.61569C5.73098 4.62524 5.70633 4.62999 5.68148 4.62963H4.8963C4.84718 4.62963 4.80008 4.61012 4.76535 4.57539C4.73062 4.54066 4.71111 4.49356 4.71111 4.44444V3.65926C4.71081 3.63497 4.7156 3.61089 4.72517 3.58857C4.73474 3.56624 4.74887 3.54616 4.76667 3.52963L7.07037 1.22593C7.20916 1.08796 7.3969 1.01052 7.59259 1.01052C7.78829 1.01052 7.97603 1.08796 8.11481 1.22593Z" fill="#CCCCCC"/>
</svg>
