<svg width="10" height="9" viewBox="0 0 10 9" fill="none" xmlns="http://www.w3.org/2000/svg">
<path d="M6.99642 3.05359C7.24297 3.05359 7.44284 2.85372 7.44284 2.60716C7.44284 2.36061 7.24297 2.16074 6.99642 2.16074C6.74986 2.16074 6.54999 2.36061 6.54999 2.60716C6.54999 2.85372 6.74986 3.05359 6.99642 3.05359Z" fill="#CCCCCC"/>
<path d="M8.92857 0H1.07143C0.482143 0 0 0.482143 0 1.07143V5.19643L2.64286 1.60357C2.71071 1.51071 2.81786 1.45714 2.92857 1.45714H2.93214C3.04286 1.45714 3.15 1.51071 3.21786 1.59643L6.48214 5.88571L8.375 3.78929C8.44643 3.71071 8.55 3.66071 8.65714 3.67143C8.76786 3.67857 8.86429 3.73214 8.92857 3.81786L10 5.3V1.07143C10 0.482143 9.51786 0 8.92857 0ZM6.99643 3.76786C6.68859 3.76786 6.39336 3.64557 6.17568 3.42789C5.958 3.21022 5.83571 2.91498 5.83571 2.60714C5.83571 2.2993 5.958 2.00407 6.17568 1.78639C6.39336 1.56872 6.68859 1.44643 6.99643 1.44643C7.30427 1.44643 7.5995 1.56872 7.81718 1.78639C8.03485 2.00407 8.15714 2.2993 8.15714 2.60714C8.15714 2.91498 8.03485 3.21022 7.81718 3.42789C7.5995 3.64557 7.30427 3.76786 6.99643 3.76786Z" fill="#CCCCCC"/>
<path d="M7.35714 7.75359H7.21786C6.625 7.75359 6.14643 7.27502 6.14643 6.68217C6.14643 6.66431 6.14643 6.64645 6.15 6.62859L2.93571 2.41074L0 6.40359V7.14288C0 7.73216 0.482143 8.21431 1.07143 8.21431H7.40714C7.37408 8.11159 7.35721 8.00436 7.35714 7.89645V7.75359ZM9.64286 6.32609H8.78714V5.47002C8.78714 5.3753 8.74952 5.28446 8.68254 5.21748C8.61556 5.15051 8.52472 5.11288 8.43 5.11288C8.33528 5.11288 8.24444 5.15051 8.17746 5.21748C8.11048 5.28446 8.07286 5.3753 8.07286 5.47002V6.32609H7.21643C7.12171 6.32609 7.03087 6.36372 6.96389 6.4307C6.89691 6.49768 6.85929 6.58852 6.85929 6.68324C6.85929 6.77796 6.89691 6.8688 6.96389 6.93577C7.03087 7.00275 7.12171 7.04038 7.21643 7.04038H8.07286V7.89645C8.07286 7.99117 8.11048 8.08201 8.17746 8.14899C8.24444 8.21597 8.33528 8.25359 8.43 8.25359C8.52472 8.25359 8.61556 8.21597 8.68254 8.14899C8.74952 8.08201 8.78714 7.99117 8.78714 7.89645V7.04038H9.64286C9.73758 7.04038 9.82842 7.00275 9.8954 6.93577C9.96237 6.8688 10 6.77796 10 6.68324C10 6.58852 9.96237 6.49768 9.8954 6.4307C9.82842 6.36372 9.73758 6.32609 9.64286 6.32609Z" fill="#CCCCCC"/>
</svg>
