<svg width="10" height="10" viewBox="0 0 10 10" fill="none" xmlns="http://www.w3.org/2000/svg">
<path fill-rule="evenodd" clip-rule="evenodd" d="M1.78571 0H8.21429C9.20051 0 10 0.799492 10 1.78571V8.21429C10 9.20051 9.20051 10 8.21429 10H1.78571C0.799492 10 0 9.20051 0 8.21429V1.78571C0 0.799492 0.799492 0 1.78571 0ZM7.04136 2.96071C7.07396 2.99533 7.10051 3.03517 7.11993 3.07857C7.13701 3.12175 7.1455 3.16785 7.14493 3.21429V5.71429C7.14493 5.80901 7.1073 5.89985 7.04032 5.96682C6.97335 6.0338 6.88251 6.07143 6.78779 6.07143C6.69307 6.07143 6.60222 6.0338 6.53525 5.96682C6.46827 5.89985 6.43064 5.80901 6.43064 5.71429V4.07857L3.46993 7.03929C3.43673 7.07276 3.39723 7.09933 3.35371 7.11746C3.31018 7.13559 3.2635 7.14493 3.21636 7.14493C3.16921 7.14493 3.12253 7.13559 3.07901 7.11746C3.03549 7.09933 2.99599 7.07276 2.96279 7.03929C2.92931 7.00608 2.90274 6.96658 2.88461 6.92306C2.86648 6.87954 2.85714 6.83286 2.85714 6.78571C2.85714 6.73857 2.86648 6.69189 2.88461 6.64837C2.90274 6.60484 2.92931 6.56534 2.96279 6.53214L5.92707 3.57143H4.28779C4.19307 3.57143 4.10222 3.5338 4.03525 3.46682C3.96827 3.39985 3.93064 3.30901 3.93064 3.21429C3.93064 3.11957 3.96827 3.02872 4.03525 2.96175C4.10222 2.89477 4.19307 2.85714 4.28779 2.85714H6.78779C6.83446 2.85771 6.88056 2.86741 6.9235 2.88571C6.96678 2.9038 7.00664 2.92917 7.04136 2.96071Z" fill="#CCCCCC"/>
</svg>
