<svg width="10" height="10" viewBox="0 0 10 10" fill="none" xmlns="http://www.w3.org/2000/svg">
<path d="M3.49 4.28333C3.58667 4.34333 3.71 4.35 3.81333 4.29667L4.99667 3.70333L6.18 4.29667C6.23071 4.32253 6.28722 4.33494 6.3441 4.33269C6.40098 4.33045 6.45633 4.31363 6.50485 4.28385C6.55336 4.25408 6.59342 4.21233 6.62117 4.16263C6.64892 4.11293 6.66344 4.05693 6.66333 4V0H3.33333V4C3.33333 4.11667 3.39333 4.22333 3.49 4.28333ZM4.75 1H5.25C5.43333 1 5.58333 1.15 5.58333 1.33333C5.58333 1.51667 5.43333 1.66667 5.25 1.66667H4.75C4.56667 1.66667 4.41667 1.51667 4.41667 1.33333C4.41667 1.15 4.56667 1 4.75 1ZM9.66667 0H7.33333V2H10V0.333333C10 0.15 9.85 0 9.66667 0ZM2.66667 0H0.333333C0.15 0 0 0.15 0 0.333333V2H2.66667V0Z" fill="#CCCCCC"/>
<path d="M7.33333 4.00002C7.33333 4.35002 7.15667 4.66669 6.86 4.85002C6.70333 4.94669 6.52 5.00002 6.33333 5.00002C6.18 5.00002 6.02667 4.96335 5.88667 4.89669L5 4.45335L4.11333 4.89669C3.97333 4.96669 3.82 5.00335 3.66667 5.00335C3.48 5.00335 3.3 4.95002 3.14 4.85335C2.84333 4.67002 2.66667 4.35335 2.66667 4.00335V2.67002H0V9.66669C0 9.85002 0.15 10 0.333333 10H9.66667C9.85 10 10 9.85002 10 9.66669V2.66669H7.33333V4.00002ZM1.66667 6.66669H1.83333C2.01667 6.66669 2.16667 6.81669 2.16667 7.00002C2.16667 7.18335 2.01667 7.33335 1.83333 7.33335H1.66667C1.48333 7.33335 1.33333 7.18335 1.33333 7.00002C1.33333 6.81669 1.48333 6.66669 1.66667 6.66669ZM5 8.66669H1.66667C1.48333 8.66669 1.33333 8.51669 1.33333 8.33335C1.33333 8.15002 1.48333 8.00002 1.66667 8.00002H5C5.18333 8.00002 5.33333 8.15002 5.33333 8.33335C5.33333 8.51669 5.18333 8.66669 5 8.66669ZM5 7.33335H3C2.81667 7.33335 2.66667 7.18335 2.66667 7.00002C2.66667 6.81669 2.81667 6.66669 3 6.66669H5C5.18333 6.66669 5.33333 6.81669 5.33333 7.00002C5.33333 7.18335 5.18333 7.33335 5 7.33335Z" fill="#CCCCCC"/>
</svg>
