<svg width="10" height="7" viewBox="0 0 10 7" fill="none" xmlns="http://www.w3.org/2000/svg">
<path d="M0 4.57764e-05H1.75781V4.57036H0V4.57764e-05ZM8.24219 4.57764e-05H10V4.57036H8.24219V4.57764e-05ZM4.36914 2.5121L2.71934 4.5703H7.1623L4.36914 2.5121Z" fill="#CCCCCC"/>
<path d="M2.34375 4.10195L4.26367 1.70664L7.65625 4.20644V0H2.34375V4.10195ZM6.28906 0.773633H6.875V1.35957H6.28906V0.773633ZM2.34375 5.37115H2.92969V5.95709H2.34375V5.37115ZM3.52539 5.37115H4.11133V5.95709H3.52539V5.37115ZM4.58441 5.66373L4.99867 5.24947L5.41293 5.66373L4.99867 6.07799L4.58441 5.66373ZM5.88867 5.37115H6.47461V5.95709H5.88867V5.37115ZM7.07031 5.37115H7.65625V5.95709H7.07031V5.37115Z" fill="#CCCCCC"/>
</svg>
